#!OML:ASF X:\für Bonn\!DataBase\2005_08_10_Bjorn_Final\c3d\bjorn.ASF
:FULLY-SPECIFIED
:DEGREES
182
root -17.8492 19.3906 -0.641076 1805.38 -78.4873 -364.063
lowerback -6.50562 6.52194 -4.49188
upperback 7.03377 9.86228 -9.02946
thorax 12.2968 4.69808 -5.7581
lowerneck -3.47417 -12.4454 3.2258
upperneck 6.52878 -17.6735 8.60299
head 3.29463 -8.50439 1.51099
rclavicle 7.15625e-015 1.04958e-013
rhumerus 41.6406 -28.8871 -80.7487
rradius 77.8311
rwrist -36.9586
rhand -27.1067 7.59606
rfingers 7.12502
rthumb -0.523123 -22.383
lclavicle 7.15625e-015 1.04958e-013
lhumerus -25.4558 1.31676 74.6698
lradius 21.8202
lwrist -23.0286
lhand -19.8692 -6.26029
lfingers 7.12502
lthumb 6.46607 23.621
rfemur 0.240269 2.20145 17.9737
rtibia 33.1422
rfoot -3.8515 28.0137
rtoes -18.3342
lfemur -18.2346 1.26363 -16.6994
ltibia 26.3601
lfoot 1.35732 -21.5504
ltoes 8.54933
183
root -17.8053 19.3816 -0.670583 1804.81 -78.0528 -363.513
lowerback -6.49826 6.45902 -4.44729
upperback 7.02915 9.77175 -8.9739
thorax 12.2731 4.65803 -5.73618
lowerneck -3.45138 -12.4204 3.16934
upperneck 6.743 -17.6327 8.39152
head 3.34493 -8.4798 1.45055
rclavicle 2.46493e-014 8.26944e-014
rhumerus 40.9254 -28.8906 -81.724
rradius 80.0787
rwrist -36.6934
rhand -28.5023 8.0109
rfingers 7.12502
rthumb -1.871 -21.9606
lclavicle 2.46493e-014 8.26944e-014
lhumerus -25.2724 1.35858 74.9477
lradius 21.8187
lwrist -23.1284
lhand -19.8739 -6.087
lfingers 7.12502
lthumb 6.46156 23.7944
rfemur 0.464804 2.5337 18.0003
rtibia 32.7673
rfoot -3.41153 28.6803
rtoes -17.5782
lfemur -18.4543 0.997891 -16.7293
ltibia 26.4183
lfoot 1.70425 -21.7266
ltoes 9.10604
184
root -17.7595 19.3715 -0.701636 1804.19 -77.5981 -362.917
lowerback -6.50308 6.39016 -4.42269
upperback 7.04414 9.67855 -8.92254
thorax 12.2772 4.61442 -5.7076
lowerneck -3.45336 -12.3854 3.18876
upperneck 6.93518 -17.5771 8.13754
head 3.3793 -8.44827 1.36584
rclavicle -2.70347e-014 1.30403e-013
rhumerus 40.1293 -28.7935 -82.5709
rradius 82.3265
rwrist -36.2537
rhand -29.7337 8.48562
rfingers 7.12502
rthumb -3.06026 -21.4722
lclavicle -2.70347e-014 1.30403e-013
lhumerus -25.0427 1.42339 75.219
lradius 21.8227
lwrist -23.2006
lhand -19.8601 -5.99229
lfingers 7.12502
lthumb 6.47486 23.8887
rfemur 0.663079 2.90196 18.0151
rtibia 32.3933
rfoot -2.82893 29.3309
rtoes -16.3724
lfemur -18.6763 0.74855 -16.7857
ltibia 26.461
lfoot 2.05827 -21.9492
ltoes 9.47153
185
root -17.7122 19.3624 -0.733815 1803.69 -77.1458 -362.457
lowerback -6.48853 6.32061 -4.37333
upperback 7.04822 9.57838 -8.86756
thorax 12.2595 4.57012 -5.69143
lowerneck -3.38022 -12.3242 3.20149
upperneck 7.09173 -17.4787 7.89937
head 3.38891 -8.3994 1.29556
rclavicle -2.8625e-014 -4.13472e-014
rhumerus 39.1498 -28.5718 -83.2316
rradius 84.5937
rwrist -35.7693
rhand -30.8799 9.17755
rfingers 7.12502
rthumb -4.16713 -20.7614
lclavicle -2.8625e-014 -4.13472e-014
lhumerus -24.8436 1.36522 75.5263
lradius 21.85
lwrist -23.106
lhand -19.8659 -5.86454
lfingers 7.12502
lthumb 6.4693 24.0167
rfemur 0.845369 3.31411 18.0645
rtibia 32.0117
rfoot -2.24096 29.9561
rtoes -14.8591
lfemur -18.8936 0.510391 -16.8189
ltibia 26.5036
lfoot 2.4392 -22.1574
ltoes 9.91645
186
root -17.6633 19.3518 -0.766297 1803.16 -76.6781 -361.948
lowerback -6.5061 6.24143 -4.35801
upperback 7.06927 9.4728 -8.7953
thorax 12.2713 4.51839 -5.63536
lowerneck -3.26986 -12.2567 3.17739
upperneck 7.18793 -17.3604 7.6631
head 3.37406 -8.34517 1.23669
rclavicle -5.40694e-014 5.725e-014
rhumerus 38.0992 -28.2676 -83.7355
rradius 86.803
rwrist -35.0379
rhand -31.893 9.9899
rfingers 7.12502
rthumb -5.14538 -19.9276
lclavicle -5.40694e-014 5.725e-014
lhumerus -24.628 1.32013 75.8862
lradius 21.9048
lwrist -22.961
lhand -19.9108 -5.74042
lfingers 7.12502
lthumb 6.42588 24.1421
rfemur 1.00307 3.72455 18.0839
rtibia 31.6298
rfoot -1.55535 30.5995
rtoes -13.1499
lfemur -19.1329 0.191186 -16.8663
ltibia 26.54
lfoot 2.84284 -22.2898
ltoes 10.4466
187
root -17.6125 19.3416 -0.800164 1802.83 -76.1976 -361.639
lowerback -6.53286 6.16866 -4.32727
upperback 7.09035 9.37348 -8.68914
thorax 12.2847 4.46945 -5.54757
lowerneck -3.1548 -12.1874 3.14453
upperneck 7.29896 -17.2376 7.40294
head 3.36193 -8.28896 1.17174
rclavicle 7.63333e-014 6.36111e-015
rhumerus 36.9206 -27.8967 -84.0215
rradius 88.9545
rwrist -34.1201
rhand -32.4561 10.969
rfingers 7.12502
rthumb -5.68911 -18.9346
lclavicle 7.63333e-014 6.36111e-015
lhumerus -24.4373 1.28917 76.306
lradius 22.0007
lwrist -22.8021
lhand -19.9461 -5.6108
lfingers 7.12502
lthumb 6.39183 24.2728
rfemur 1.12576 4.18348 18.1647
rtibia 31.2397
rfoot -0.832662 31.1984
rtoes -11.0897
lfemur -19.4024 -0.10191 -16.8753
ltibia 26.5837
lfoot 3.25161 -22.4511
ltoes 10.8196
188
root -17.5601 19.33 -0.834374 1802.51 -75.6999 -361.367
lowerback -6.52143 6.10205 -4.26603
upperback 7.11659 9.27621 -8.59747
thorax 12.2896 4.4255 -5.49599
lowerneck -2.98859 -12.1105 3.15585
upperneck 7.36574 -17.1033 7.17164
head 3.32407 -8.22893 1.11483
rclavicle 4.45278e-014 1.90833e-014
rhumerus 35.607 -27.4387 -84.1872
rradius 91.0209
rwrist -32.9806
rhand -33.0934 12.1446
rfingers 7.12502
rthumb -6.30437 -17.7416
lclavicle 4.45278e-014 1.90833e-014
lhumerus -24.2392 1.14658 76.7237
lradius 22.1004
lwrist -22.5263
lhand -20.0271 -5.49531
lfingers 7.12502
lthumb 6.31363 24.3906
rfemur 1.28299 4.68565 18.256
rtibia 30.8416
rfoot -0.232164 31.7363
rtoes -9.04654
lfemur -19.6448 -0.453113 -16.8794
ltibia 26.6344
lfoot 3.63132 -22.5571
ltoes 11.2295
189
root -17.506 19.3189 -0.869987 1802.22 -75.1897 -361.11
lowerback -6.52231 6.04032 -4.22239
upperback 7.13557 9.1875 -8.49774
thorax 12.2897 4.38355 -5.42307
lowerneck -2.72595 -12.0257 3.20284
upperneck 7.35925 -16.9472 6.93526
head 3.23908 -8.16299 1.06128
rclavicle 2.22639e-014 9.54166e-015
rhumerus 34.1956 -26.9398 -84.1806
rradius 92.9702
rwrist -31.6624
rhand -33.9247 13.2184
rfingers 7.12502
rthumb -7.10688 -16.6423
lclavicle 2.22639e-014 9.54166e-015
lhumerus -24.0673 1.00648 77.1541
lradius 22.2354
lwrist -22.2358
lhand -20.0456 -5.42554
lfingers 7.12502
lthumb 6.29576 24.4609
rfemur 1.41412 5.1752 18.3383
rtibia 30.4383
rfoot 0.238562 32.2291
rtoes -7.37244
lfemur -19.9203 -0.767441 -16.8942
ltibia 26.6995
lfoot 4.00184 -22.7273
ltoes 11.4485
190
root -17.45 19.3063 -0.905102 1801.94 -74.6674 -360.869
lowerback -6.50078 5.98837 -4.15048
upperback 7.13794 9.10594 -8.4092
thorax 12.2645 4.34891 -5.37887
lowerneck -2.43907 -11.9362 3.24052
upperneck 7.4021 -16.7905 6.7204
head 3.17096 -8.09475 1.01533
rclavicle -3.97569e-015 8.90555e-014
rhumerus 32.6417 -26.359 -84.028
rradius 94.8811
rwrist -30.1971
rhand -34.7654 14.156
rfingers 7.12502
rthumb -7.91833 -15.6757
lclavicle -3.97569e-015 8.90555e-014
lhumerus -23.9095 0.79588 77.6057
lradius 22.3618
lwrist -21.9059
lhand -20.1225 -5.36601
lfingers 7.12502
lthumb 6.22151 24.5226
rfemur 1.5364 5.66814 18.4175
rtibia 30.0365
rfoot 0.677565 32.7129
rtoes -5.63939
lfemur -20.2066 -1.17082 -16.9023
ltibia 26.7709
lfoot 4.40153 -22.7759
ltoes 11.9562
191
root -17.3915 19.2931 -0.941492 1801.75 -74.1153 -360.712
lowerback -6.50201 5.94316 -4.04109
upperback 7.17187 9.03538 -8.32318
thorax 12.2983 4.32246 -5.35438
lowerneck -2.17216 -11.8383 3.37878
upperneck 7.39037 -16.6195 6.467
head 3.0746 -8.01966 0.944021
rclavicle -7.55382e-014 -3.18055e-015
rhumerus 31.065 -25.7505 -83.7633
rradius 96.6974
rwrist -28.6274
rhand -35.7173 14.8829
rfingers 7.12502
rthumb -8.83699 -14.9121
lclavicle -7.55382e-014 -3.18055e-015
lhumerus -23.7184 0.470367 78.0631
lradius 22.5532
lwrist -21.4638
lhand -20.1742 -5.32105
lfingers 7.12502
lthumb 6.17159 24.5691
rfemur 1.64826 6.16299 18.5188
rtibia 29.6274
rfoot 1.198 33.2806
rtoes -3.3994
lfemur -20.5203 -1.57456 -16.8914
ltibia 26.862
lfoot 4.74739 -22.8805
ltoes 12.1793
192
root -17.3317 19.2783 -0.977912 1801.62 -73.5335 -360.632
lowerback -6.52228 5.90745 -3.8769
upperback 7.23901 8.97793 -8.24997
thorax 12.3958 4.30752 -5.37073
lowerneck -1.95927 -11.7307 3.56561
upperneck 7.37823 -16.4433 6.23435
head 2.98684 -7.93879 0.868272
rclavicle -1.22451e-013 7.31528e-014
rhumerus 29.486 -25.0924 -83.4655
rradius 98.4554
rwrist -26.9905
rhand -36.7639 15.4192
rfingers 7.12502
rthumb -9.84689 -14.3305
lclavicle -1.22451e-013 7.31528e-014
lhumerus -23.4904 0.0858857 78.5043
lradius 22.784
lwrist -21.0178
lhand -20.1699 -5.32648
lfingers 7.12502
lthumb 6.17584 24.5635
rfemur 1.78116 6.66878 18.6472
rtibia 29.2131
rfoot 1.54749 33.9014
rtoes -1.64493
lfemur -20.8376 -1.95247 -16.8743
ltibia 26.9662
lfoot 5.18118 -23.0152
ltoes 12.604
193
root -17.2694 19.2627 -1.01361 1801.49 -72.933 -360.555
lowerback -6.55209 5.87081 -3.68831
upperback 7.32036 8.9181 -8.1683
thorax 12.5179 4.2933 -5.39086
lowerneck -1.77083 -11.5834 3.74093
upperneck 7.35117 -16.216 6.02782
head 2.90245 -7.83168 0.802275
rclavicle 3.26007e-014 -1.59028e-014
rhumerus 27.9147 -24.3434 -83.0753
rradius 100.05
rwrist -25.2922
rhand -37.783 16.0945
rfingers 7.12502
rthumb -10.83 -13.6063
lclavicle 3.26007e-014 -1.59028e-014
lhumerus -23.2358 -0.369585 78.9896
lradius 23.0074
lwrist -20.519
lhand -20.2013 -5.34226
lfingers 7.12502
lthumb 6.14546 24.5486
rfemur 1.91048 7.14453 18.7625
rtibia 28.7899
rfoot 1.94293 34.5717
rtoes 0.139342
lfemur -21.1696 -2.4136 -16.8581
ltibia 27.0744
lfoot 5.51675 -23.098
ltoes 12.7173
194
root -17.2049 19.2464 -1.05045 1801.4 -72.3001 -360.542
lowerback -6.59065 5.80462 -3.52482
upperback 7.42759 8.8189 -8.02607
thorax 12.6553 4.25437 -5.33587
lowerneck -1.56718 -11.3984 3.79794
upperneck 7.34581 -15.932 5.80611
head 2.83189 -7.69814 0.750082
rclavicle 4.77083e-014 -3.81667e-014
rhumerus 26.3298 -23.4153 -82.6029
rradius 101.463
rwrist -23.4526
rhand -38.7048 16.8753
rfingers 7.12502
rthumb -11.719 -12.7769
lclavicle 4.77083e-014 -3.81667e-014
lhumerus -23.0492 -0.69393 79.5245
lradius 23.3178
lwrist -20.0397
lhand -20.1936 -5.43165
lfingers 7.12502
lthumb 6.15287 24.459
rfemur 2.055 7.59742 18.9016
rtibia 28.3683
rfoot 2.23478 35.2896
rtoes 1.76097
lfemur -21.4884 -2.87596 -16.8258
ltibia 27.1744
lfoot 5.90406 -23.2019
ltoes 12.9806
